<svg width="24" height="24" viewBox="0 0 24 24" fill="none" xmlns="http://www.w3.org/2000/svg">
  <path d="M4 4C4 2.89543 4.89543 2 6 2H18C19.1046 2 20 2.89543 20 4V6.5C20 7.60457 19.1046 8.5 18 8.5H6C4.89543 8.5 4 7.60457 4 6.5V4Z" fill="#4F46E5"/>
  <path d="M4 11C4 9.89543 4.89543 9 6 9H18C19.1046 9 20 9.89543 20 11V13.5C20 14.6046 19.1046 15.5 18 15.5H6C4.89543 15.5 4 14.6046 4 13.5V11Z" fill="#10B981"/>
  <path d="M4 18C4 16.8954 4.89543 16 6 16H18C19.1046 16 20 16.8954 20 18V20C20 21.1046 19.1046 22 18 22H6C4.89543 22 4 21.1046 4 20V18Z" fill="#F59E0B"/>
</svg>